<svg width="120" height="45" viewBox="0 0 120 45" fill="none" xmlns="http://www.w3.org/2000/svg">
<path d="M38.6783 14.6378C39.0185 15.5684 38.2146 16.515 37.2313 16.3416L31.8664 15.3954C25.3563 31.6065 10.0725 36.4666 1.59564 36.6811C0.73649 36.7027 0.0225051 36.0307 0.000518072 35.1799C-0.0214398 34.3291 0.657328 33.6215 1.5166 33.5998C9.08452 33.4082 22.6885 29.0896 28.7324 14.8424L23.9648 14.0017C22.9812 13.8283 22.5562 12.6643 23.2001 11.9072L31.8801 1.70125C32.5235 0.944809 33.7517 1.16176 34.0918 2.09191L38.6783 14.6378Z" fill="#D15D50"/>
<path d="M33.5648 36.7516C33.2381 36.7516 32.9318 36.6101 32.646 36.327C32.3601 36.0642 32.1457 35.7508 32.0028 35.3869C31.8803 35.023 31.8701 34.7097 31.9722 34.4469L35.0042 27.3811C35.1471 27.0576 35.2288 26.7948 35.2492 26.5926C35.2697 26.3905 35.1982 26.2894 35.0348 26.2894C34.9123 26.2894 34.7082 26.3804 34.4223 26.5623C34.1569 26.7241 33.871 26.9262 33.5648 27.1688C33.2585 27.4114 32.9829 27.6439 32.7379 27.8663C32.5949 28.0078 32.452 28.0786 32.3091 28.0786C32.1662 28.0584 32.0947 27.9876 32.0947 27.8663C32.0947 27.7248 32.1253 27.5732 32.1866 27.4114C32.2683 27.2295 32.3908 27.0374 32.5541 26.8352C33.1054 26.1277 33.6975 25.5212 34.3304 25.0157C34.9838 24.5103 35.6168 24.1161 36.2293 23.8331C36.8418 23.55 37.3829 23.4085 37.8525 23.4085C38.0362 23.4085 38.2302 23.5096 38.4344 23.7118C38.6386 23.8937 38.7917 24.106 38.8938 24.3486C39.0163 24.5912 39.0265 24.8237 38.9244 25.0461C38.3936 26.158 37.8321 27.371 37.24 28.6851C36.6478 29.9992 36.0149 31.384 35.3411 32.8396C35.1778 33.1833 35.0859 33.4967 35.0655 33.7797C35.0655 34.0627 35.1676 34.2043 35.3717 34.2043C35.5759 34.2043 35.872 34.0122 36.2599 33.6281C36.6683 33.244 37.1277 32.7487 37.6381 32.1422C38.169 31.5356 38.6998 30.9089 39.2307 30.262C39.8228 29.5746 40.3945 28.867 40.9458 28.1392C41.497 27.3912 41.9871 26.7038 42.4158 26.0771C42.8446 25.4504 43.1611 24.9753 43.3653 24.6518C43.5694 24.2879 43.7736 24.0049 43.9778 23.8027C44.2024 23.6006 44.427 23.4995 44.6516 23.4995C44.8966 23.4995 45.1212 23.5905 45.3254 23.7724C45.55 23.9341 45.7133 24.1262 45.8154 24.3486C45.9379 24.571 45.9481 24.7832 45.846 24.9854L42.3546 33.3855C42.2525 33.6685 42.2015 33.901 42.2015 34.083C42.2219 34.2447 42.3035 34.3256 42.4465 34.3256C42.6711 34.3256 42.9875 34.1942 43.3959 33.9313C43.8247 33.6483 44.2636 33.3349 44.7128 32.9913C45.1824 32.6274 45.5602 32.2938 45.846 31.9905C45.8869 31.9703 45.9175 31.9602 45.9379 31.9602C46.0196 31.9602 46.091 32.0006 46.1523 32.0815C46.234 32.1421 46.2748 32.2129 46.2748 32.2938C46.2748 32.4555 46.2033 32.6375 46.0604 32.8396C45.9175 33.0216 45.7235 33.2237 45.4785 33.4461C45.2539 33.6685 44.9987 33.8808 44.7128 34.083C44.427 34.2851 44.1411 34.4671 43.8553 34.6288C43.5899 34.7905 43.3448 34.9017 43.1203 34.9624C42.7732 35.2656 42.3954 35.5183 41.9871 35.7205C41.5991 35.9025 41.201 36.0238 40.7926 36.0844C40.3843 36.1451 39.9861 36.135 39.5982 36.0541C39.4349 36.0137 39.2919 35.8721 39.1694 35.6295C39.0673 35.3667 39.0673 35.1241 39.1694 34.9017C39.394 34.4165 39.639 33.8909 39.9045 33.3248C40.1699 32.7385 40.4251 32.1725 40.6701 31.6266C40.9151 31.0606 41.1193 30.5753 41.2827 30.171C41.3643 29.9486 41.3439 29.8374 41.2214 29.8374C41.1193 29.8172 41.0172 29.8678 40.9151 29.9891C40.078 30.9797 39.2919 31.8894 38.5569 32.7183C37.8423 33.527 37.1787 34.2346 36.5662 34.8411C35.9741 35.4476 35.4228 35.9227 34.9123 36.2664C34.4019 36.5898 33.9527 36.7516 33.5648 36.7516Z" fill="#B5B3AD"/>
<path d="M44.2226 45C44.1409 45 44.0592 44.9697 43.9776 44.909C43.8755 44.8484 43.8244 44.7675 43.8244 44.6664C43.8244 44.5047 43.9163 44.3733 44.1001 44.2722C44.2634 44.1913 44.437 44.1307 44.6207 44.0903C45.1516 43.969 45.5497 43.8274 45.8152 43.6657C46.0806 43.5242 46.2848 43.2412 46.4277 42.8166L52.0017 26.7443C52.0834 26.5017 52.1344 26.3096 52.1548 26.1681C52.1957 26.0064 52.1855 25.8851 52.1242 25.8042C52.063 25.7233 51.9302 25.7132 51.7261 25.7739C51.2769 25.8547 50.8787 25.9457 50.5316 26.0468C50.205 26.1277 49.8272 26.2692 49.3985 26.4713C49.2351 26.532 49.0718 26.5421 48.9084 26.5017C48.7655 26.4612 48.694 26.3602 48.694 26.1984C48.694 26.0165 48.7553 25.8648 48.8778 25.7435C49.0003 25.6222 49.1432 25.5313 49.3066 25.4706C49.6333 25.3291 50.0518 25.137 50.5623 24.8944C51.0931 24.6316 51.7465 24.3789 52.5224 24.1363C52.6653 24.0757 52.7878 23.9948 52.8899 23.8937C53.0124 23.7724 53.1145 23.5803 53.1961 23.3175C53.5024 22.3673 53.8495 21.6699 54.2374 21.2251C54.6254 20.7803 55.0848 20.5579 55.6156 20.5579C55.8811 20.5579 56.0853 20.6388 56.2282 20.8005C56.3711 20.9623 56.3915 21.215 56.2894 21.5587L55.8607 23.0446C55.8198 23.2468 55.8096 23.4085 55.83 23.5298C55.8709 23.6309 55.9321 23.6713 56.0138 23.6511C56.2792 23.5905 56.5242 23.55 56.7488 23.5298C56.9938 23.4894 57.2388 23.4692 57.4839 23.4692C58.5456 23.4692 59.4031 23.641 60.0565 23.9847C60.7099 24.3284 61.1897 24.8035 61.4959 25.41C61.8022 25.9963 61.9553 26.6634 61.9553 27.4114C61.9553 28.4425 61.7205 29.5039 61.2509 30.5956C60.7813 31.6671 60.1484 32.6779 59.3521 33.6281C58.5762 34.5581 57.688 35.3162 56.6876 35.9025C55.6871 36.4685 54.6458 36.7516 53.5637 36.7516C53.2982 36.7516 53.0328 36.6808 52.7674 36.5393C52.5224 36.418 52.308 36.2967 52.1242 36.1754C51.8996 36.0137 51.7261 35.9631 51.6036 36.0238C51.4811 36.0642 51.3586 36.2765 51.236 36.6606L49.3678 42.483C49.2453 42.8874 49.2964 43.2108 49.521 43.4534C49.766 43.696 50.1845 43.8679 50.7766 43.969C50.9604 43.9892 51.134 44.0296 51.2973 44.0903C51.4606 44.1711 51.5423 44.3126 51.5423 44.5148C51.5423 44.6159 51.4606 44.6968 51.2973 44.7574C51.1544 44.8181 50.9808 44.8484 50.7766 44.8484C50.45 44.8484 50.0824 44.8383 49.6741 44.8181C49.2657 44.8181 48.8676 44.808 48.4797 44.7877C48.1121 44.7877 47.8161 44.7978 47.5915 44.8181C47.081 44.8585 46.54 44.8989 45.9683 44.9394C45.3762 44.9798 44.7943 45 44.2226 45ZM53.8699 35.6599C54.2987 35.6599 54.7887 35.4274 55.34 34.9624C55.9117 34.4772 56.463 33.8505 56.9938 33.0822C57.5451 32.314 57.9943 31.475 58.3414 30.5652C58.6885 29.6353 58.8621 28.7154 58.8621 27.8057C58.8621 26.6937 58.6477 25.9255 58.2189 25.5009C57.7901 25.0562 57.2082 24.8338 56.4732 24.8338C56.3098 24.8338 56.1465 24.8338 55.9832 24.8338C55.8198 24.8338 55.6463 24.854 55.4625 24.8944L52.7367 33.0519C52.6347 33.3754 52.5836 33.6887 52.5836 33.992C52.5836 34.2952 52.6245 34.5682 52.7061 34.8108C52.8286 35.0736 52.9715 35.2859 53.1349 35.4476C53.2982 35.5891 53.5432 35.6599 53.8699 35.6599Z" fill="#B5B3AD"/>
<path d="M68.3379 36.7819C67.7253 36.7819 67.123 36.7314 66.5309 36.6303C65.9388 36.5494 65.3671 36.3978 64.8158 36.1754C64.5504 36.0541 64.3258 35.9631 64.142 35.9025C63.9583 35.8216 63.8358 35.7812 63.7745 35.7812C63.652 35.7812 63.5295 35.8115 63.407 35.8721C63.2845 35.9126 63.1722 35.953 63.0701 35.9934C62.9272 36.0743 62.7945 36.1552 62.6719 36.236C62.5699 36.2967 62.478 36.327 62.3963 36.327C62.2942 36.327 62.1615 36.2563 61.9982 36.1147C61.8348 35.953 61.7532 35.8115 61.7532 35.6902C61.7532 35.5487 61.8552 35.2555 62.0594 34.8108C62.2636 34.3458 62.4882 33.7797 62.7332 33.1126C62.9782 32.4252 63.1518 31.6873 63.2539 30.8988C63.3355 30.3732 63.5499 30.1104 63.897 30.1104C64.1012 30.1104 64.2237 30.2418 64.2645 30.5046C64.3258 30.7472 64.3564 31.1313 64.3564 31.6569C64.3564 32.3645 64.4891 33.0317 64.7546 33.6584C65.02 34.2851 65.4283 34.7804 65.9796 35.1443C66.5309 35.5082 67.2251 35.6902 68.0622 35.6902C69.3281 35.6902 70.3592 35.3465 71.1555 34.6591C71.9722 33.9718 72.3806 33.0418 72.3806 31.8692C72.3806 31.384 72.2989 30.9393 72.1355 30.5349C71.9722 30.1104 71.6864 29.6555 71.278 29.1703C70.8901 28.6851 70.3286 28.1089 69.5935 27.4418C68.6543 26.6129 67.8989 25.784 67.3272 24.9551C66.7759 24.106 66.5003 23.0951 66.5003 21.9226C66.5003 20.8309 66.7963 19.8504 67.3884 18.981C67.9805 18.1117 68.787 17.4344 69.8079 16.9492C70.8492 16.4438 72.0233 16.1911 73.33 16.1911C73.8404 16.1911 74.3305 16.2417 74.8001 16.3427C75.2697 16.4236 75.6984 16.5247 76.0864 16.646C76.4947 16.7673 76.8316 16.8785 77.097 16.9796C77.3625 17.0807 77.5871 17.1312 77.7708 17.1312C78.0363 17.1312 78.2609 17.0705 78.4446 16.9492C78.5671 16.8886 78.6794 16.8381 78.7815 16.7976C78.8836 16.7572 78.9959 16.737 79.1184 16.737C79.3022 16.737 79.4145 16.8077 79.4553 16.9492C79.4961 17.0705 79.4961 17.1918 79.4553 17.3131C79.3328 17.4547 79.1694 17.7175 78.9653 18.1016C78.7815 18.4655 78.5875 18.9507 78.3834 19.5572C78.1792 20.1435 77.9954 20.8511 77.8321 21.68C77.7912 21.9428 77.7096 22.1551 77.5871 22.3168C77.485 22.4785 77.3727 22.5594 77.2502 22.5594C77.0868 22.5594 76.9643 22.4684 76.8827 22.2865C76.8214 22.1045 76.7908 21.8518 76.7908 21.5283C76.7908 20.1536 76.4641 19.0922 75.8107 18.3442C75.1574 17.576 74.2896 17.1918 73.2075 17.1918C72.4724 17.1918 71.8293 17.3738 71.278 17.7377C70.7471 18.0814 70.3286 18.5262 70.0223 19.072C69.7161 19.6179 69.5629 20.1839 69.5629 20.7702C69.5629 21.2756 69.6446 21.7507 69.8079 22.1955C69.9917 22.6403 70.298 23.1053 70.7267 23.5905C71.1555 24.0757 71.7374 24.6417 72.4724 25.2887C73.6158 26.2591 74.4223 27.1486 74.8919 27.9573C75.382 28.7659 75.627 29.6353 75.627 30.5652C75.627 31.6367 75.3411 32.6476 74.7694 33.5978C74.2182 34.5479 73.3912 35.3162 72.2887 35.9025C71.2065 36.4888 69.8896 36.7819 68.3379 36.7819Z" fill="#B5B3AD"/>
<path d="M86.9004 36.8729C86.4512 36.8729 86.0735 36.7415 85.7672 36.4786C85.4814 36.236 85.2364 35.8721 85.0322 35.3869L83.8071 31.8692C83.705 31.566 83.5621 31.3133 83.3784 31.1111C83.1946 30.9089 82.9802 30.8078 82.7352 30.8078C82.5923 30.8078 82.4596 30.919 82.3371 31.1414C82.235 31.3638 82.1329 31.5963 82.0308 31.8389C81.9287 32.0411 81.8062 32.314 81.6633 32.6577C81.5408 33.0014 81.3978 33.3653 81.2345 33.7494C81.0916 34.1335 80.9589 34.4974 80.8364 34.8411C80.7139 35.1646 80.6016 35.4375 80.4995 35.6599C80.377 35.9631 80.2136 36.2057 80.0094 36.3877C79.8053 36.5696 79.5296 36.6606 79.1825 36.6606C78.9579 36.6606 78.7027 36.5595 78.4169 36.3573C78.1514 36.1552 78.0187 35.8924 78.0187 35.5689C78.0187 35.4072 78.0391 35.2252 78.08 35.023C78.1208 34.8007 78.1821 34.5682 78.2637 34.3256L83.0721 19.5875C83.1742 19.2439 83.2559 18.9305 83.3171 18.6475C83.3784 18.3644 83.409 18.0915 83.409 17.8287C83.409 17.485 83.1742 17.2222 82.7046 17.0402C82.5208 16.9594 82.3473 16.8886 82.1839 16.8279C82.041 16.7471 81.9695 16.6662 81.9695 16.5853C81.9695 16.4843 82.0002 16.4034 82.0614 16.3427C82.1227 16.2619 82.2554 16.1911 82.4596 16.1305C82.6842 16.0294 82.9904 15.9081 83.3784 15.7666C83.7867 15.625 84.2053 15.4936 84.634 15.3723C85.0832 15.2308 85.4814 15.1196 85.8285 15.0388C86.1756 14.9579 86.4308 14.9175 86.5941 14.9175C86.7167 14.9175 86.8494 14.9276 86.9923 14.9478C87.1352 14.968 87.2067 15.0691 87.2067 15.251C87.2067 15.4532 87.1863 15.625 87.1454 15.7666C87.125 15.8879 87.0944 16.0294 87.0535 16.1911L83.0721 27.836C83.0108 28.0179 83.021 28.1089 83.1027 28.1089C83.2048 28.0887 83.2967 28.028 83.3784 27.927C84.0113 27.0576 84.6851 26.2894 85.3997 25.6222C86.1347 24.9551 86.8902 24.4295 87.6661 24.0453C88.4624 23.6612 89.2382 23.4692 89.9937 23.4692C90.5041 23.4692 90.9533 23.6006 91.3413 23.8634C91.7292 24.106 91.9232 24.48 91.9232 24.9854C91.9232 25.4706 91.7292 25.9861 91.3413 26.532C90.9737 27.0778 90.4939 27.5934 89.9018 28.0786C89.3301 28.5638 88.7176 28.9984 88.0642 29.3826C87.4109 29.7465 86.7983 30.0295 86.2266 30.2317C86.0225 30.2721 85.9816 30.4136 86.1041 30.6562L87.3904 33.5978C87.4721 33.7797 87.5844 33.9617 87.7273 34.1436C87.8907 34.3256 88.0846 34.4165 88.3092 34.4165C88.6563 34.4165 89.0341 34.2447 89.4424 33.901C89.8508 33.5573 90.1979 33.1732 90.4837 32.7487C90.5858 32.5869 90.6675 32.4858 90.7287 32.4454C90.79 32.405 90.8614 32.3848 90.9431 32.3848C91.0044 32.3848 91.0452 32.4252 91.0656 32.5061C91.1065 32.5869 91.1269 32.6678 91.1269 32.7487C91.1269 33.1328 90.9737 33.5674 90.6675 34.0526C90.3816 34.5176 90.0039 34.9624 89.5343 35.3869C89.0851 35.8115 88.6155 36.1653 88.1255 36.4483C87.6559 36.7314 87.2475 36.8729 86.9004 36.8729ZM83.8684 30.0497C84.4401 30.0497 85.0322 29.9082 85.6447 29.6252C86.2573 29.3421 86.8187 28.9883 87.3292 28.5638C87.86 28.1392 88.2888 27.7046 88.6155 27.2598C88.9422 26.815 89.1055 26.441 89.1055 26.1378C89.1055 25.8345 89.0136 25.6121 88.8299 25.4706C88.6461 25.3291 88.3807 25.2583 88.0336 25.2583C87.6457 25.2583 87.1965 25.4403 86.686 25.8042C86.1756 26.1681 85.6754 26.6129 85.1853 27.1385C84.7157 27.6439 84.3176 28.1291 83.9909 28.5941C83.6846 29.0591 83.5315 29.3927 83.5315 29.5948C83.5315 29.6959 83.5621 29.797 83.6234 29.8981C83.6846 29.9992 83.7663 30.0497 83.8684 30.0497Z" fill="#B5B3AD"/>
<path d="M94.8676 36.7516C94.4388 36.7516 94.0713 36.6101 93.7651 36.327C93.4792 36.0238 93.3363 35.7205 93.3363 35.4173C93.3363 35.3364 93.3465 35.2555 93.3669 35.1747C93.3873 35.0736 93.418 34.9725 93.4588 34.8714C94.1734 33.3754 94.7962 31.94 95.327 30.5652C95.8783 29.1905 96.3887 27.9371 96.8583 26.8049C96.9196 26.623 96.8686 26.532 96.7052 26.532C96.5827 26.532 96.3887 26.5825 96.1233 26.6836C95.8783 26.7847 95.6129 26.9161 95.327 27.0778C95.0412 27.2396 94.7859 27.4013 94.5614 27.5631C94.3776 27.6641 94.2245 27.6844 94.102 27.6237C93.9999 27.5631 93.9488 27.4721 93.9488 27.3508C93.9488 27.2295 94.0509 27.0475 94.2551 26.8049C94.4593 26.5623 94.7349 26.2995 95.082 26.0165C95.4495 25.7132 95.8579 25.41 96.3071 25.1067C96.7563 24.7832 97.2054 24.4901 97.6546 24.2273C98.1242 23.9442 98.5734 23.7219 99.0022 23.5601C99.2472 23.459 99.4922 23.4793 99.7372 23.6208C99.9823 23.7421 100.176 23.9139 100.319 24.1363C100.462 24.3587 100.503 24.5508 100.442 24.7125L96.8583 33.2945C96.7971 33.4158 96.7563 33.5371 96.7358 33.6584C96.7154 33.7797 96.7052 33.8808 96.7052 33.9617C96.7052 34.0627 96.746 34.1436 96.8277 34.2043C96.9094 34.2447 96.9911 34.2649 97.0727 34.2649C97.2973 34.2649 97.5934 34.1436 97.9609 33.901C98.3488 33.6382 98.747 33.3248 99.1553 32.9609C99.5841 32.597 99.972 32.2432 100.319 31.8995C100.36 31.8591 100.401 31.8389 100.442 31.8389C100.503 31.8389 100.564 31.8692 100.625 31.9299C100.687 31.9905 100.717 32.0512 100.717 32.1118C100.717 32.4555 100.503 32.8902 100.074 33.4158C99.6658 33.9212 99.1553 34.4368 98.5428 34.9624C97.9303 35.4678 97.2871 35.8924 96.6133 36.236C95.96 36.5797 95.3781 36.7516 94.8676 36.7516ZM100.748 20.8915C100.38 20.8915 100.064 20.75 99.7985 20.467C99.5535 20.1637 99.431 19.8301 99.431 19.4662C99.431 18.8799 99.6351 18.3644 100.044 17.9197C100.452 17.4547 100.962 17.2222 101.575 17.2222C101.983 17.2222 102.3 17.394 102.524 17.7377C102.749 18.0612 102.861 18.415 102.861 18.7991C102.861 19.3449 102.657 19.8301 102.249 20.2547C101.84 20.6792 101.34 20.8915 100.748 20.8915Z" fill="#B5B3AD"/>
<path d="M103.113 36.7516C102.746 36.7516 102.388 36.5898 102.041 36.2664C101.714 35.9429 101.551 35.5992 101.551 35.2353C101.551 35.114 101.582 34.9523 101.643 34.7501L107.156 18.9507C107.34 18.4655 107.421 18.0915 107.401 17.8287C107.38 17.5456 107.289 17.3131 107.125 17.1312C107.003 17.0099 106.87 16.8886 106.727 16.7673C106.584 16.6258 106.431 16.5045 106.268 16.4034C106.166 16.3225 106.084 16.2518 106.023 16.1911C105.982 16.1103 106.012 16.0294 106.114 15.9485C106.339 15.8676 106.584 15.7868 106.85 15.7059C107.135 15.625 107.401 15.5543 107.646 15.4936C107.891 15.433 108.095 15.3723 108.258 15.3117C108.524 15.251 108.84 15.1904 109.208 15.1297C109.596 15.0489 109.953 14.9882 110.28 14.9478C110.606 14.8871 110.821 14.8568 110.923 14.8568C111.045 14.8568 111.137 14.9175 111.199 15.0388C111.28 15.1398 111.311 15.2611 111.29 15.4027C111.27 15.524 111.229 15.6857 111.168 15.8879C111.127 16.0698 111.066 16.2619 110.984 16.464L105.104 33.1429C105.063 33.2642 105.032 33.3855 105.012 33.5068C104.992 33.6281 104.981 33.7292 104.981 33.81C104.981 34.1133 105.094 34.2649 105.318 34.2649C105.563 34.2649 105.859 34.1335 106.206 33.8707C106.574 33.6079 106.941 33.2945 107.309 32.9306C107.676 32.5465 107.983 32.1927 108.228 31.8692C108.309 31.7681 108.401 31.6671 108.503 31.566C108.626 31.4649 108.718 31.4143 108.779 31.4143C108.881 31.4143 108.942 31.4649 108.963 31.566C109.004 31.6671 109.024 31.7681 109.024 31.8692C109.024 32.2331 108.881 32.6375 108.595 33.0822C108.309 33.5068 107.932 33.9414 107.462 34.3862C106.992 34.8108 106.492 35.205 105.961 35.5689C105.431 35.9126 104.91 36.1956 104.399 36.418C103.909 36.6404 103.481 36.7516 103.113 36.7516Z" fill="#B5B3AD"/>
<path d="M111.817 36.7516C111.449 36.7516 111.092 36.5898 110.745 36.2664C110.418 35.9429 110.255 35.5992 110.255 35.2353C110.255 35.114 110.285 34.9523 110.346 34.7501L115.859 18.9507C116.043 18.4655 116.125 18.0915 116.104 17.8287C116.084 17.5456 115.992 17.3131 115.829 17.1312C115.706 17.0099 115.573 16.8886 115.43 16.7673C115.288 16.6258 115.134 16.5045 114.971 16.4034C114.869 16.3225 114.787 16.2518 114.726 16.1911C114.685 16.1103 114.716 16.0294 114.818 15.9485C115.043 15.8676 115.288 15.7868 115.553 15.7059C115.839 15.625 116.104 15.5543 116.349 15.4936C116.594 15.433 116.798 15.3723 116.962 15.3117C117.227 15.251 117.544 15.1904 117.911 15.1297C118.299 15.0489 118.656 14.9882 118.983 14.9478C119.31 14.8871 119.524 14.8568 119.626 14.8568C119.749 14.8568 119.841 14.9175 119.902 15.0388C119.984 15.1398 120.014 15.2611 119.994 15.4027C119.973 15.524 119.933 15.6857 119.871 15.8879C119.83 16.0698 119.769 16.2619 119.688 16.464L113.807 33.1429C113.766 33.2642 113.736 33.3855 113.715 33.5068C113.695 33.6281 113.685 33.7292 113.685 33.81C113.685 34.1133 113.797 34.2649 114.022 34.2649C114.267 34.2649 114.563 34.1335 114.91 33.8707C115.277 33.6079 115.645 33.2945 116.012 32.9306C116.38 32.5465 116.686 32.1927 116.931 31.8692C117.013 31.7681 117.105 31.6671 117.207 31.566C117.329 31.4649 117.421 31.4143 117.482 31.4143C117.585 31.4143 117.646 31.4649 117.666 31.566C117.707 31.6671 117.727 31.7681 117.727 31.8692C117.727 32.2331 117.585 32.6375 117.299 33.0822C117.013 33.5068 116.635 33.9414 116.166 34.3862C115.696 34.8108 115.196 35.205 114.665 35.5689C114.134 35.9126 113.613 36.1956 113.103 36.418C112.613 36.6404 112.184 36.7516 111.817 36.7516Z" fill="#B5B3AD"/>
</svg>
