<svg width="120" height="45" viewBox="0 0 120 45" fill="none" xmlns="http://www.w3.org/2000/svg">
<path d="M38.6783 14.6377C39.0185 15.5683 38.2146 16.5149 37.2313 16.3415L31.8664 15.3953C25.3563 31.6063 10.0725 36.4665 1.59564 36.681C0.73649 36.7026 0.0225051 36.0305 0.000518072 35.1798C-0.0214398 34.329 0.657328 33.6214 1.5166 33.5997C9.08452 33.4081 22.6885 29.0895 28.7324 14.8422L23.9648 14.0016C22.9812 13.8281 22.5562 12.6642 23.2001 11.9071L31.8801 1.70113C32.5235 0.944687 33.7517 1.16164 34.0918 2.09178L38.6783 14.6377Z" fill="#D15D50"/>
<path d="M33.5648 36.7517C33.2381 36.7517 32.9318 36.6102 32.646 36.3271C32.3601 36.0643 32.1457 35.751 32.0028 35.3871C31.8803 35.0232 31.8701 34.7098 31.9722 34.447L35.0042 27.3812C35.1471 27.0578 35.2288 26.7949 35.2492 26.5928C35.2697 26.3906 35.1982 26.2895 35.0348 26.2895C34.9123 26.2895 34.7082 26.3805 34.4223 26.5624C34.1569 26.7242 33.871 26.9263 33.5648 27.1689C33.2585 27.4115 32.9829 27.644 32.7379 27.8664C32.5949 28.0079 32.452 28.0787 32.3091 28.0787C32.1662 28.0585 32.0947 27.9877 32.0947 27.8664C32.0947 27.7249 32.1253 27.5733 32.1866 27.4115C32.2683 27.2296 32.3908 27.0375 32.5541 26.8354C33.1054 26.1278 33.6975 25.5213 34.3304 25.0159C34.9838 24.5104 35.6168 24.1162 36.2293 23.8332C36.8418 23.5501 37.3829 23.4086 37.8525 23.4086C38.0362 23.4086 38.2302 23.5097 38.4344 23.7119C38.6386 23.8938 38.7917 24.1061 38.8938 24.3487C39.0163 24.5913 39.0265 24.8238 38.9244 25.0462C38.3936 26.1581 37.8321 27.3711 37.24 28.6852C36.6478 29.9993 36.0149 31.3841 35.3411 32.8398C35.1778 33.1834 35.0859 33.4968 35.0655 33.7798C35.0655 34.0629 35.1676 34.2044 35.3717 34.2044C35.5759 34.2044 35.872 34.0123 36.2599 33.6282C36.6683 33.2441 37.1277 32.7488 37.6381 32.1423C38.169 31.5358 38.6998 30.909 39.2307 30.2621C39.8228 29.5747 40.3945 28.8672 40.9458 28.1394C41.497 27.3913 41.9871 26.704 42.4158 26.0772C42.8446 25.4505 43.1611 24.9754 43.3653 24.652C43.5694 24.2881 43.7736 24.005 43.9778 23.8029C44.2024 23.6007 44.427 23.4996 44.6516 23.4996C44.8966 23.4996 45.1212 23.5906 45.3254 23.7725C45.55 23.9343 45.7133 24.1263 45.8154 24.3487C45.9379 24.5711 45.9481 24.7834 45.846 24.9855L42.3546 33.3856C42.2525 33.6686 42.2015 33.9011 42.2015 34.0831C42.2219 34.2448 42.3035 34.3257 42.4465 34.3257C42.6711 34.3257 42.9875 34.1943 43.3959 33.9315C43.8247 33.6484 44.2636 33.3351 44.7128 32.9914C45.1824 32.6275 45.5602 32.2939 45.846 31.9906C45.8869 31.9704 45.9175 31.9603 45.9379 31.9603C46.0196 31.9603 46.091 32.0008 46.1523 32.0816C46.234 32.1423 46.2748 32.213 46.2748 32.2939C46.2748 32.4556 46.2033 32.6376 46.0604 32.8398C45.9175 33.0217 45.7235 33.2239 45.4785 33.4463C45.2539 33.6686 44.9987 33.8809 44.7128 34.0831C44.427 34.2852 44.1411 34.4672 43.8553 34.6289C43.5899 34.7907 43.3448 34.9019 43.1203 34.9625C42.7732 35.2658 42.3954 35.5185 41.9871 35.7206C41.5991 35.9026 41.201 36.0239 40.7926 36.0845C40.3843 36.1452 39.9861 36.1351 39.5982 36.0542C39.4349 36.0138 39.2919 35.8723 39.1694 35.6297C39.0673 35.3668 39.0673 35.1242 39.1694 34.9019C39.394 34.4167 39.639 33.891 39.9045 33.325C40.1699 32.7387 40.4251 32.1726 40.6701 31.6267C40.9151 31.0607 41.1193 30.5755 41.2827 30.1711C41.3643 29.9488 41.3439 29.8376 41.2214 29.8376C41.1193 29.8173 41.0172 29.8679 40.9151 29.9892C40.078 30.9798 39.2919 31.8896 38.5569 32.7185C37.8423 33.5271 37.1787 34.2347 36.5662 34.8412C35.9741 35.4477 35.4228 35.9228 34.9123 36.2665C34.4019 36.59 33.9527 36.7517 33.5648 36.7517Z" fill="#63635E"/>
<path d="M44.2226 45.0001C44.1409 45.0001 44.0592 44.9698 43.9776 44.9092C43.8755 44.8485 43.8244 44.7676 43.8244 44.6666C43.8244 44.5048 43.9163 44.3734 44.1001 44.2723C44.2634 44.1915 44.437 44.1308 44.6207 44.0904C45.1516 43.9691 45.5497 43.8276 45.8152 43.6658C46.0806 43.5243 46.2848 43.2413 46.4277 42.8167L52.0017 26.7444C52.0834 26.5018 52.1344 26.3097 52.1548 26.1682C52.1957 26.0065 52.1855 25.8852 52.1242 25.8043C52.063 25.7234 51.9302 25.7133 51.7261 25.774C51.2769 25.8549 50.8787 25.9458 50.5316 26.0469C50.205 26.1278 49.8272 26.2693 49.3985 26.4715C49.2351 26.5321 49.0718 26.5422 48.9084 26.5018C48.7655 26.4614 48.694 26.3603 48.694 26.1985C48.694 26.0166 48.7553 25.865 48.8778 25.7437C49.0003 25.6224 49.1432 25.5314 49.3066 25.4707C49.6333 25.3292 50.0518 25.1372 50.5623 24.8946C51.0931 24.6317 51.7465 24.379 52.5224 24.1364C52.6653 24.0758 52.7878 23.9949 52.8899 23.8938C53.0124 23.7725 53.1145 23.5805 53.1961 23.3177C53.5024 22.3675 53.8495 21.67 54.2374 21.2252C54.6254 20.7804 55.0848 20.5581 55.6156 20.5581C55.8811 20.5581 56.0853 20.6389 56.2282 20.8007C56.3711 20.9624 56.3915 21.2151 56.2894 21.5588L55.8607 23.0447C55.8198 23.2469 55.8096 23.4086 55.83 23.5299C55.8709 23.631 55.9321 23.6714 56.0138 23.6512C56.2792 23.5906 56.5242 23.5501 56.7488 23.5299C56.9938 23.4895 57.2388 23.4693 57.4839 23.4693C58.5456 23.4693 59.4031 23.6411 60.0565 23.9848C60.7099 24.3285 61.1897 24.8036 61.4959 25.4101C61.8022 25.9964 61.9553 26.6635 61.9553 27.4115C61.9553 28.4426 61.7205 29.504 61.2509 30.5957C60.7813 31.6672 60.1484 32.678 59.3521 33.6282C58.5762 34.5582 57.688 35.3163 56.6876 35.9026C55.6871 36.4687 54.6458 36.7517 53.5637 36.7517C53.2982 36.7517 53.0328 36.6809 52.7674 36.5394C52.5224 36.4181 52.308 36.2968 52.1242 36.1755C51.8996 36.0138 51.7261 35.9632 51.6036 36.0239C51.4811 36.0643 51.3586 36.2766 51.236 36.6607L49.3678 42.4832C49.2453 42.8875 49.2964 43.211 49.521 43.4536C49.766 43.6962 50.1845 43.868 50.7766 43.9691C50.9604 43.9893 51.134 44.0297 51.2973 44.0904C51.4606 44.1712 51.5423 44.3128 51.5423 44.5149C51.5423 44.616 51.4606 44.6969 51.2973 44.7575C51.1544 44.8182 50.9808 44.8485 50.7766 44.8485C50.45 44.8485 50.0824 44.8384 49.6741 44.8182C49.2657 44.8182 48.8676 44.8081 48.4797 44.7879C48.1121 44.7879 47.8161 44.798 47.5915 44.8182C47.081 44.8586 46.54 44.8991 45.9683 44.9395C45.3762 44.9799 44.7943 45.0001 44.2226 45.0001ZM53.8699 35.66C54.2987 35.66 54.7887 35.4275 55.34 34.9625C55.9117 34.4773 56.463 33.8506 56.9938 33.0824C57.5451 32.3141 57.9943 31.4751 58.3414 30.5654C58.6885 29.6354 58.8621 28.7155 58.8621 27.8058C58.8621 26.6939 58.6477 25.9256 58.2189 25.5011C57.7901 25.0563 57.2082 24.8339 56.4732 24.8339C56.3098 24.8339 56.1465 24.8339 55.9832 24.8339C55.8198 24.8339 55.6463 24.8541 55.4625 24.8946L52.7367 33.052C52.6347 33.3755 52.5836 33.6889 52.5836 33.9921C52.5836 34.2954 52.6245 34.5683 52.7061 34.8109C52.8286 35.0737 52.9715 35.286 53.1349 35.4477C53.2982 35.5892 53.5432 35.66 53.8699 35.66Z" fill="#63635E"/>
<path d="M68.3379 36.782C67.7253 36.782 67.123 36.7315 66.5309 36.6304C65.9388 36.5495 65.3671 36.3979 64.8158 36.1755C64.5504 36.0542 64.3258 35.9632 64.142 35.9026C63.9583 35.8217 63.8358 35.7813 63.7745 35.7813C63.652 35.7813 63.5295 35.8116 63.407 35.8723C63.2845 35.9127 63.1722 35.9531 63.0701 35.9936C62.9272 36.0744 62.7945 36.1553 62.6719 36.2362C62.5699 36.2968 62.478 36.3271 62.3963 36.3271C62.2942 36.3271 62.1615 36.2564 61.9982 36.1149C61.8348 35.9531 61.7532 35.8116 61.7532 35.6903C61.7532 35.5488 61.8552 35.2557 62.0594 34.8109C62.2636 34.3459 62.4882 33.7798 62.7332 33.1127C62.9782 32.4253 63.1518 31.6874 63.2539 30.8989C63.3355 30.3733 63.5499 30.1105 63.897 30.1105C64.1012 30.1105 64.2237 30.2419 64.2645 30.5047C64.3258 30.7473 64.3564 31.1314 64.3564 31.6571C64.3564 32.3647 64.4891 33.0318 64.7546 33.6585C65.02 34.2852 65.4283 34.7806 65.9796 35.1445C66.5309 35.5084 67.2251 35.6903 68.0622 35.6903C69.3281 35.6903 70.3592 35.3466 71.1555 34.6593C71.9722 33.9719 72.3806 33.0419 72.3806 31.8693C72.3806 31.3841 72.2989 30.9394 72.1355 30.535C71.9722 30.1105 71.6864 29.6556 71.278 29.1704C70.8901 28.6852 70.3286 28.109 69.5935 27.4419C68.6543 26.613 67.8989 25.7841 67.3272 24.9552C66.7759 24.1061 66.5003 23.0953 66.5003 21.9227C66.5003 20.831 66.7963 19.8505 67.3884 18.9812C67.9805 18.1118 68.787 17.4346 69.8079 16.9494C70.8492 16.4439 72.0233 16.1912 73.33 16.1912C73.8404 16.1912 74.3305 16.2418 74.8001 16.3429C75.2697 16.4237 75.6984 16.5248 76.0864 16.6461C76.4947 16.7674 76.8316 16.8786 77.097 16.9797C77.3625 17.0808 77.5871 17.1313 77.7708 17.1313C78.0363 17.1313 78.2609 17.0707 78.4446 16.9494C78.5671 16.8887 78.6794 16.8382 78.7815 16.7977C78.8836 16.7573 78.9959 16.7371 79.1184 16.7371C79.3022 16.7371 79.4145 16.8079 79.4553 16.9494C79.4961 17.0707 79.4961 17.192 79.4553 17.3133C79.3328 17.4548 79.1694 17.7176 78.9653 18.1017C78.7815 18.4656 78.5875 18.9508 78.3834 19.5573C78.1792 20.1436 77.9954 20.8512 77.8321 21.6801C77.7912 21.9429 77.7096 22.1552 77.5871 22.3169C77.485 22.4787 77.3727 22.5595 77.2502 22.5595C77.0868 22.5595 76.9643 22.4685 76.8827 22.2866C76.8214 22.1046 76.7908 21.8519 76.7908 21.5285C76.7908 20.1537 76.4641 19.0923 75.8107 18.3443C75.1574 17.5761 74.2896 17.192 73.2075 17.192C72.4724 17.192 71.8293 17.3739 71.278 17.7378C70.7471 18.0815 70.3286 18.5263 70.0223 19.0721C69.7161 19.618 69.5629 20.1841 69.5629 20.7703C69.5629 21.2758 69.6446 21.7509 69.8079 22.1956C69.9917 22.6404 70.298 23.1054 70.7267 23.5906C71.1555 24.0758 71.7374 24.6418 72.4724 25.2888C73.6158 26.2592 74.4223 27.1487 74.8919 27.9574C75.382 28.7661 75.627 29.6354 75.627 30.5654C75.627 31.6369 75.3411 32.6477 74.7694 33.5979C74.2182 34.5481 73.3912 35.3163 72.2887 35.9026C71.2065 36.4889 69.8896 36.782 68.3379 36.782Z" fill="#63635E"/>
<path d="M86.9004 36.873C86.4512 36.873 86.0735 36.7416 85.7672 36.4788C85.4814 36.2362 85.2364 35.8723 85.0322 35.3871L83.8071 31.8693C83.705 31.5661 83.5621 31.3134 83.3784 31.1112C83.1946 30.909 82.9802 30.808 82.7352 30.808C82.5923 30.808 82.4596 30.9192 82.3371 31.1415C82.235 31.3639 82.1329 31.5964 82.0308 31.839C81.9287 32.0412 81.8062 32.3141 81.6633 32.6578C81.5408 33.0015 81.3978 33.3654 81.2345 33.7495C81.0916 34.1336 80.9589 34.4975 80.8364 34.8412C80.7139 35.1647 80.6016 35.4376 80.4995 35.66C80.377 35.9632 80.2136 36.2058 80.0094 36.3878C79.8053 36.5697 79.5296 36.6607 79.1825 36.6607C78.9579 36.6607 78.7027 36.5596 78.4169 36.3575C78.1514 36.1553 78.0187 35.8925 78.0187 35.569C78.0187 35.4073 78.0391 35.2253 78.08 35.0232C78.1208 34.8008 78.1821 34.5683 78.2637 34.3257L83.0721 19.5877C83.1742 19.244 83.2559 18.9306 83.3171 18.6476C83.3784 18.3645 83.409 18.0916 83.409 17.8288C83.409 17.4851 83.1742 17.2223 82.7046 17.0403C82.5208 16.9595 82.3473 16.8887 82.1839 16.8281C82.041 16.7472 81.9695 16.6663 81.9695 16.5855C81.9695 16.4844 82.0002 16.4035 82.0614 16.3429C82.1227 16.262 82.2554 16.1912 82.4596 16.1306C82.6842 16.0295 82.9904 15.9082 83.3784 15.7667C83.7867 15.6252 84.2053 15.4938 84.634 15.3725C85.0832 15.2309 85.4814 15.1198 85.8285 15.0389C86.1756 14.958 86.4308 14.9176 86.5941 14.9176C86.7167 14.9176 86.8494 14.9277 86.9923 14.9479C87.1352 14.9681 87.2067 15.0692 87.2067 15.2512C87.2067 15.4533 87.1863 15.6252 87.1454 15.7667C87.125 15.888 87.0944 16.0295 87.0535 16.1912L83.0721 27.8361C83.0108 28.0181 83.021 28.109 83.1027 28.109C83.2048 28.0888 83.2967 28.0282 83.3784 27.9271C84.0113 27.0578 84.6851 26.2895 85.3997 25.6224C86.1347 24.9552 86.8902 24.4296 87.6661 24.0455C88.4624 23.6613 89.2382 23.4693 89.9937 23.4693C90.5041 23.4693 90.9533 23.6007 91.3413 23.8635C91.7292 24.1061 91.9232 24.4801 91.9232 24.9855C91.9232 25.4707 91.7292 25.9863 91.3413 26.5321C90.9737 27.078 90.4939 27.5935 89.9018 28.0787C89.3301 28.5639 88.7176 28.9986 88.0642 29.3827C87.4109 29.7466 86.7983 30.0296 86.2266 30.2318C86.0225 30.2722 85.9816 30.4137 86.1041 30.6563L87.3904 33.5979C87.4721 33.7798 87.5844 33.9618 87.7273 34.1437C87.8907 34.3257 88.0846 34.4167 88.3092 34.4167C88.6563 34.4167 89.0341 34.2448 89.4424 33.9011C89.8508 33.5574 90.1979 33.1733 90.4837 32.7488C90.5858 32.587 90.6675 32.486 90.7287 32.4455C90.79 32.4051 90.8614 32.3849 90.9431 32.3849C91.0044 32.3849 91.0452 32.4253 91.0656 32.5062C91.1065 32.587 91.1269 32.6679 91.1269 32.7488C91.1269 33.1329 90.9737 33.5676 90.6675 34.0528C90.3816 34.5177 90.0039 34.9625 89.5343 35.3871C89.0851 35.8116 88.6155 36.1654 88.1255 36.4484C87.6559 36.7315 87.2475 36.873 86.9004 36.873ZM83.8684 30.0498C84.4401 30.0498 85.0322 29.9083 85.6447 29.6253C86.2573 29.3422 86.8187 28.9885 87.3292 28.5639C87.86 28.1394 88.2888 27.7047 88.6155 27.2599C88.9422 26.8152 89.1055 26.4411 89.1055 26.1379C89.1055 25.8346 89.0136 25.6123 88.8299 25.4707C88.6461 25.3292 88.3807 25.2585 88.0336 25.2585C87.6457 25.2585 87.1965 25.4404 86.686 25.8043C86.1756 26.1682 85.6754 26.613 85.1853 27.1386C84.7157 27.644 84.3176 28.1292 83.9909 28.5942C83.6846 29.0592 83.5315 29.3928 83.5315 29.595C83.5315 29.696 83.5621 29.7971 83.6234 29.8982C83.6846 29.9993 83.7663 30.0498 83.8684 30.0498Z" fill="#63635E"/>
<path d="M94.8676 36.7517C94.4388 36.7517 94.0713 36.6102 93.7651 36.3271C93.4792 36.0239 93.3363 35.7206 93.3363 35.4174C93.3363 35.3365 93.3465 35.2557 93.3669 35.1748C93.3873 35.0737 93.418 34.9726 93.4588 34.8715C94.1734 33.3755 94.7962 31.9401 95.327 30.5654C95.8783 29.1906 96.3887 27.9372 96.8583 26.805C96.9196 26.6231 96.8686 26.5321 96.7052 26.5321C96.5827 26.5321 96.3887 26.5827 96.1233 26.6837C95.8783 26.7848 95.6129 26.9162 95.327 27.078C95.0412 27.2397 94.7859 27.4014 94.5614 27.5632C94.3776 27.6643 94.2245 27.6845 94.102 27.6238C93.9999 27.5632 93.9488 27.4722 93.9488 27.3509C93.9488 27.2296 94.0509 27.0476 94.2551 26.805C94.4593 26.5624 94.7349 26.2996 95.082 26.0166C95.4495 25.7133 95.8579 25.4101 96.3071 25.1068C96.7563 24.7834 97.2054 24.4902 97.6546 24.2274C98.1242 23.9444 98.5734 23.722 99.0022 23.5603C99.2472 23.4592 99.4922 23.4794 99.7372 23.6209C99.9823 23.7422 100.176 23.914 100.319 24.1364C100.462 24.3588 100.503 24.5509 100.442 24.7126L96.8583 33.2946C96.7971 33.4159 96.7563 33.5372 96.7358 33.6585C96.7154 33.7798 96.7052 33.8809 96.7052 33.9618C96.7052 34.0629 96.746 34.1437 96.8277 34.2044C96.9094 34.2448 96.9911 34.265 97.0727 34.265C97.2973 34.265 97.5934 34.1437 97.9609 33.9011C98.3488 33.6383 98.747 33.325 99.1553 32.9611C99.5841 32.5971 99.972 32.2434 100.319 31.8997C100.36 31.8592 100.401 31.839 100.442 31.839C100.503 31.839 100.564 31.8693 100.625 31.93C100.687 31.9906 100.717 32.0513 100.717 32.1119C100.717 32.4556 100.503 32.8903 100.074 33.4159C99.6658 33.9213 99.1553 34.4369 98.5428 34.9625C97.9303 35.4679 97.2871 35.8925 96.6133 36.2362C95.96 36.5799 95.3781 36.7517 94.8676 36.7517ZM100.748 20.8916C100.38 20.8916 100.064 20.7501 99.7985 20.4671C99.5535 20.1638 99.431 19.8303 99.431 19.4664C99.431 18.8801 99.6351 18.3645 100.044 17.9198C100.452 17.4548 100.962 17.2223 101.575 17.2223C101.983 17.2223 102.3 17.3941 102.524 17.7378C102.749 18.0613 102.861 18.4151 102.861 18.7992C102.861 19.3451 102.657 19.8303 102.249 20.2548C101.84 20.6794 101.34 20.8916 100.748 20.8916Z" fill="#63635E"/>
<path d="M103.113 36.7517C102.746 36.7517 102.388 36.59 102.041 36.2665C101.714 35.943 101.551 35.5993 101.551 35.2354C101.551 35.1141 101.582 34.9524 101.643 34.7502L107.156 18.9508C107.34 18.4656 107.421 18.0916 107.401 17.8288C107.38 17.5458 107.289 17.3133 107.125 17.1313C107.003 17.01 106.87 16.8887 106.727 16.7674C106.584 16.6259 106.431 16.5046 106.268 16.4035C106.166 16.3226 106.084 16.2519 106.023 16.1912C105.982 16.1104 106.012 16.0295 106.114 15.9486C106.339 15.8678 106.584 15.7869 106.85 15.706C107.135 15.6252 107.401 15.5544 107.646 15.4938C107.891 15.4331 108.095 15.3725 108.258 15.3118C108.524 15.2512 108.84 15.1905 109.208 15.1299C109.596 15.049 109.953 14.9883 110.28 14.9479C110.606 14.8873 110.821 14.8569 110.923 14.8569C111.045 14.8569 111.137 14.9176 111.199 15.0389C111.28 15.14 111.311 15.2613 111.29 15.4028C111.27 15.5241 111.229 15.6858 111.168 15.888C111.127 16.0699 111.066 16.262 110.984 16.4642L105.104 33.143C105.063 33.2643 105.032 33.3856 105.012 33.5069C104.992 33.6282 104.981 33.7293 104.981 33.8102C104.981 34.1134 105.094 34.265 105.318 34.265C105.563 34.265 105.859 34.1336 106.206 33.8708C106.574 33.608 106.941 33.2946 107.309 32.9307C107.676 32.5466 107.983 32.1928 108.228 31.8693C108.309 31.7683 108.401 31.6672 108.503 31.5661C108.626 31.465 108.718 31.4145 108.779 31.4145C108.881 31.4145 108.942 31.465 108.963 31.5661C109.004 31.6672 109.024 31.7683 109.024 31.8693C109.024 32.2332 108.881 32.6376 108.595 33.0824C108.309 33.5069 107.932 33.9416 107.462 34.3863C106.992 34.8109 106.492 35.2051 105.961 35.569C105.431 35.9127 104.91 36.1957 104.399 36.4181C103.909 36.6405 103.481 36.7517 103.113 36.7517Z" fill="#63635E"/>
<path d="M111.817 36.7517C111.449 36.7517 111.092 36.59 110.745 36.2665C110.418 35.943 110.255 35.5993 110.255 35.2354C110.255 35.1141 110.285 34.9524 110.346 34.7502L115.859 18.9508C116.043 18.4656 116.125 18.0916 116.104 17.8288C116.084 17.5458 115.992 17.3133 115.829 17.1313C115.706 17.01 115.573 16.8887 115.43 16.7674C115.288 16.6259 115.134 16.5046 114.971 16.4035C114.869 16.3226 114.787 16.2519 114.726 16.1912C114.685 16.1104 114.716 16.0295 114.818 15.9486C115.043 15.8678 115.288 15.7869 115.553 15.706C115.839 15.6252 116.104 15.5544 116.349 15.4938C116.594 15.4331 116.798 15.3725 116.962 15.3118C117.227 15.2512 117.544 15.1905 117.911 15.1299C118.299 15.049 118.656 14.9883 118.983 14.9479C119.31 14.8873 119.524 14.8569 119.626 14.8569C119.749 14.8569 119.841 14.9176 119.902 15.0389C119.984 15.14 120.014 15.2613 119.994 15.4028C119.973 15.5241 119.933 15.6858 119.871 15.888C119.83 16.0699 119.769 16.262 119.688 16.4642L113.807 33.143C113.766 33.2643 113.736 33.3856 113.715 33.5069C113.695 33.6282 113.685 33.7293 113.685 33.8102C113.685 34.1134 113.797 34.265 114.022 34.265C114.267 34.265 114.563 34.1336 114.91 33.8708C115.277 33.608 115.645 33.2946 116.012 32.9307C116.38 32.5466 116.686 32.1928 116.931 31.8693C117.013 31.7683 117.105 31.6672 117.207 31.5661C117.329 31.465 117.421 31.4145 117.482 31.4145C117.585 31.4145 117.646 31.465 117.666 31.5661C117.707 31.6672 117.727 31.7683 117.727 31.8693C117.727 32.2332 117.585 32.6376 117.299 33.0824C117.013 33.5069 116.635 33.9416 116.166 34.3863C115.696 34.8109 115.196 35.2051 114.665 35.569C114.134 35.9127 113.613 36.1957 113.103 36.4181C112.613 36.6405 112.184 36.7517 111.817 36.7517Z" fill="#63635E"/>
</svg>
